<?xml version="1.0" encoding="UTF-8" standalone="no"?>
<!DOCTYPE svg PUBLIC "-//W3C//DTD SVG 1.1//EN"
 "http://www.w3.org/Graphics/SVG/1.1/DTD/svg11.dtd">
<!-- Generated by graphviz version 2.43.0 (0)
 -->
<!-- Title: ip_map Pages: 1 -->
<svg width="599pt" height="692pt"
 viewBox="0.00 0.00 599.25 692.00" xmlns="http://www.w3.org/2000/svg" xmlns:xlink="http://www.w3.org/1999/xlink">
<g id="graph0" class="graph" transform="scale(1 1) rotate(0) translate(4 688)">
<title>ip_map</title>
<polygon fill="white" stroke="transparent" points="-4,4 -4,-688 595.25,-688 595.25,4 -4,4"/>
<!-- MH -->
<g id="node1" class="node">
<title>MH</title>
<ellipse fill="none" stroke="black" cx="160.25" cy="-666" rx="27" ry="18"/>
<text text-anchor="middle" x="160.25" y="-662.3" font-family="Helvetica,Arial,sans-serif" font-size="14.00">MH</text>
</g>
<!-- ERC -->
<g id="node2" class="node">
<title>ERC</title>
<ellipse fill="none" stroke="black" cx="29.25" cy="-594" rx="29.5" ry="18"/>
<text text-anchor="middle" x="29.25" y="-590.3" font-family="Helvetica,Arial,sans-serif" font-size="14.00">ERC</text>
</g>
<!-- MH&#45;&#45;ERC -->
<g id="edge1" class="edge">
<title>MH&#45;&#45;ERC</title>
<path fill="none" stroke="black" d="M139.78,-654.06C115.6,-641.14 75.55,-619.74 50.88,-606.56"/>
</g>
<!-- ALC -->
<g id="node3" class="node">
<title>ALC</title>
<ellipse fill="none" stroke="black" cx="104.25" cy="-594" rx="27.9" ry="18"/>
<text text-anchor="middle" x="104.25" y="-590.3" font-family="Helvetica,Arial,sans-serif" font-size="14.00">ALC</text>
</g>
<!-- MH&#45;&#45;ALC -->
<g id="edge2" class="edge">
<title>MH&#45;&#45;ALC</title>
<path fill="none" stroke="black" d="M148.1,-649.81C138.83,-638.23 126.12,-622.34 116.76,-610.64"/>
</g>
<!-- WH1 -->
<g id="node4" class="node">
<title>WH1</title>
<ellipse fill="none" stroke="black" cx="141.25" cy="-378" rx="30.59" ry="18"/>
<text text-anchor="middle" x="141.25" y="-374.3" font-family="Helvetica,Arial,sans-serif" font-size="14.00">WH1</text>
</g>
<!-- MH&#45;&#45;WH1 -->
<g id="edge3" class="edge">
<title>MH&#45;&#45;WH1</title>
<path fill="none" stroke="black" d="M159.12,-647.97C155.74,-597.22 145.79,-447.41 142.4,-396.31"/>
</g>
<!-- HO1 -->
<g id="node5" class="node">
<title>HO1</title>
<ellipse fill="none" stroke="black" cx="291.25" cy="-522" rx="29.5" ry="18"/>
<text text-anchor="middle" x="291.25" y="-518.3" font-family="Helvetica,Arial,sans-serif" font-size="14.00">HO1</text>
</g>
<!-- MH&#45;&#45;HO1 -->
<g id="edge4" class="edge">
<title>MH&#45;&#45;HO1</title>
<path fill="none" stroke="black" d="M173.77,-650.34C198.75,-623.27 251.85,-565.71 277.2,-538.22"/>
</g>
<!-- IH1 -->
<g id="node6" class="node">
<title>IH1</title>
<ellipse fill="none" stroke="black" cx="372.25" cy="-378" rx="27" ry="18"/>
<text text-anchor="middle" x="372.25" y="-374.3" font-family="Helvetica,Arial,sans-serif" font-size="14.00">IH1</text>
</g>
<!-- MH&#45;&#45;IH1 -->
<g id="edge5" class="edge">
<title>MH&#45;&#45;IH1</title>
<path fill="none" stroke="black" d="M182.59,-655.67C233.82,-632.79 358.49,-568.39 399.25,-468 409.39,-443.02 394.81,-412.75 383.45,-394.73"/>
</g>
<!-- MV -->
<g id="node7" class="node">
<title>MV</title>
<ellipse fill="none" stroke="black" cx="105.25" cy="-522" rx="27" ry="18"/>
<text text-anchor="middle" x="105.25" y="-518.3" font-family="Helvetica,Arial,sans-serif" font-size="14.00">MV</text>
</g>
<!-- ALC&#45;&#45;MV -->
<g id="edge6" class="edge">
<title>ALC&#45;&#45;MV</title>
<path fill="none" stroke="black" d="M104.49,-575.7C104.65,-564.85 104.85,-550.92 105,-540.1"/>
</g>
<!-- HO3 -->
<g id="node9" class="node">
<title>HO3</title>
<ellipse fill="none" stroke="black" cx="217.25" cy="-450" rx="29.5" ry="18"/>
<text text-anchor="middle" x="217.25" y="-446.3" font-family="Helvetica,Arial,sans-serif" font-size="14.00">HO3</text>
</g>
<!-- HO1&#45;&#45;HO3 -->
<g id="edge40" class="edge">
<title>HO1&#45;&#45;HO3</title>
<path fill="none" stroke="black" d="M275.91,-506.5C263.21,-494.48 245.26,-477.49 232.56,-465.49"/>
</g>
<!-- HR -->
<g id="node15" class="node">
<title>HR</title>
<ellipse fill="none" stroke="black" cx="363.25" cy="-450" rx="27" ry="18"/>
<text text-anchor="middle" x="363.25" y="-446.3" font-family="Helvetica,Arial,sans-serif" font-size="14.00">HR</text>
</g>
<!-- HO1&#45;&#45;HR -->
<g id="edge15" class="edge">
<title>HO1&#45;&#45;HR</title>
<path fill="none" stroke="black" d="M306.17,-506.5C318.52,-494.48 336,-477.49 348.35,-465.49"/>
</g>
<!-- CB -->
<g id="node17" class="node">
<title>CB</title>
<ellipse fill="none" stroke="black" cx="291.25" cy="-450" rx="27" ry="18"/>
<text text-anchor="middle" x="291.25" y="-446.3" font-family="Helvetica,Arial,sans-serif" font-size="14.00">CB</text>
</g>
<!-- HO1&#45;&#45;CB -->
<g id="edge17" class="edge">
<title>HO1&#45;&#45;CB</title>
<path fill="none" stroke="black" d="M291.25,-503.7C291.25,-492.85 291.25,-478.92 291.25,-468.1"/>
</g>
<!-- HV -->
<g id="node19" class="node">
<title>HV</title>
<ellipse fill="none" stroke="black" cx="553.25" cy="-18" rx="27" ry="18"/>
<text text-anchor="middle" x="553.25" y="-14.3" font-family="Helvetica,Arial,sans-serif" font-size="14.00">HV</text>
</g>
<!-- HO1&#45;&#45;HV -->
<g id="edge20" class="edge">
<title>HO1&#45;&#45;HV</title>
<path fill="none" stroke="black" d="M320.56,-520.47C396.05,-517.41 591.25,-497.99 591.25,-379 591.25,-379 591.25,-379 591.25,-161 591.25,-114.3 571.83,-61.8 560.75,-35.66"/>
</g>
<!-- IH1&#45;&#45;IH1 -->
<g id="edge21" class="edge">
<title>IH1&#45;&#45;IH1</title>
<path fill="none" stroke="black" d="M392.14,-390.43C404.94,-393.68 417.25,-389.53 417.25,-378 417.25,-366.47 404.94,-362.32 392.14,-365.57"/>
</g>
<!-- IHC -->
<g id="node18" class="node">
<title>IHC</title>
<ellipse fill="none" stroke="black" cx="363.25" cy="-306" rx="27" ry="18"/>
<text text-anchor="middle" x="363.25" y="-302.3" font-family="Helvetica,Arial,sans-serif" font-size="14.00">IHC</text>
</g>
<!-- IH1&#45;&#45;IHC -->
<g id="edge19" class="edge">
<title>IH1&#45;&#45;IHC</title>
<path fill="none" stroke="black" d="M370.07,-360.05C368.67,-349.21 366.87,-335.18 365.47,-324.28"/>
</g>
<!-- IHP -->
<g id="node20" class="node">
<title>IHP</title>
<ellipse fill="none" stroke="black" cx="473.25" cy="-306" rx="27" ry="18"/>
<text text-anchor="middle" x="473.25" y="-302.3" font-family="Helvetica,Arial,sans-serif" font-size="14.00">IHP</text>
</g>
<!-- IH1&#45;&#45;IHP -->
<g id="edge22" class="edge">
<title>IH1&#45;&#45;IHP</title>
<path fill="none" stroke="black" d="M390.3,-364.49C408.57,-351.82 436.67,-332.35 455.01,-319.64"/>
</g>
<!-- IW -->
<g id="node21" class="node">
<title>IW</title>
<ellipse fill="none" stroke="black" cx="397.25" cy="-234" rx="27" ry="18"/>
<text text-anchor="middle" x="397.25" y="-230.3" font-family="Helvetica,Arial,sans-serif" font-size="14.00">IW</text>
</g>
<!-- IH1&#45;&#45;IW -->
<g id="edge23" class="edge">
<title>IH1&#45;&#45;IW</title>
<path fill="none" stroke="black" d="M382.88,-361.07C388.99,-350.93 396.07,-337.25 399.25,-324 405.13,-299.5 402.71,-270.12 400.18,-252"/>
</g>
<!-- IH2 -->
<g id="node22" class="node">
<title>IH2</title>
<ellipse fill="none" stroke="black" cx="518.25" cy="-162" rx="27" ry="18"/>
<text text-anchor="middle" x="518.25" y="-158.3" font-family="Helvetica,Arial,sans-serif" font-size="14.00">IH2</text>
</g>
<!-- IH1&#45;&#45;IH2 -->
<g id="edge24" class="edge">
<title>IH1&#45;&#45;IH2</title>
<path fill="none" stroke="black" d="M399.36,-376.65C435.44,-374.55 498.06,-364.83 527.25,-324 558.67,-280.05 537.6,-210.86 525.32,-179.47"/>
</g>
<!-- IH4 -->
<g id="node23" class="node">
<title>IH4</title>
<ellipse fill="none" stroke="black" cx="442.25" cy="-90" rx="27" ry="18"/>
<text text-anchor="middle" x="442.25" y="-86.3" font-family="Helvetica,Arial,sans-serif" font-size="14.00">IH4</text>
</g>
<!-- IH1&#45;&#45;IH4 -->
<g id="edge25" class="edge">
<title>IH1&#45;&#45;IH4</title>
<path fill="none" stroke="black" d="M356.04,-363.57C345.62,-353.82 332.99,-339.64 327.25,-324 321.73,-308.98 323.75,-303.61 327.25,-288 344.23,-212.26 402.62,-137.02 429.06,-105.91"/>
</g>
<!-- AN -->
<g id="node8" class="node">
<title>AN</title>
<ellipse fill="none" stroke="black" cx="105.25" cy="-450" rx="27" ry="18"/>
<text text-anchor="middle" x="105.25" y="-446.3" font-family="Helvetica,Arial,sans-serif" font-size="14.00">AN</text>
</g>
<!-- MV&#45;&#45;AN -->
<g id="edge7" class="edge">
<title>MV&#45;&#45;AN</title>
<path fill="none" stroke="black" d="M105.25,-503.7C105.25,-492.85 105.25,-478.92 105.25,-468.1"/>
</g>
<!-- MV&#45;&#45;HO3 -->
<g id="edge8" class="edge">
<title>MV&#45;&#45;HO3</title>
<path fill="none" stroke="black" d="M124.25,-509.13C144.59,-496.41 176.73,-476.32 197.4,-463.4"/>
</g>
<!-- HO3&#45;&#45;WH1 -->
<g id="edge9" class="edge">
<title>HO3&#45;&#45;WH1</title>
<path fill="none" stroke="black" d="M201.5,-434.5C188.46,-422.48 170.01,-405.49 156.97,-393.49"/>
</g>
<!-- HO3&#45;&#45;IH1 -->
<g id="edge41" class="edge">
<title>HO3&#45;&#45;IH1</title>
<path fill="none" stroke="black" d="M240.12,-438.67C269.76,-425.28 321.1,-402.1 350.29,-388.92"/>
</g>
<!-- MT -->
<g id="node10" class="node">
<title>MT</title>
<ellipse fill="none" stroke="black" cx="217.25" cy="-378" rx="27" ry="18"/>
<text text-anchor="middle" x="217.25" y="-374.3" font-family="Helvetica,Arial,sans-serif" font-size="14.00">MT</text>
</g>
<!-- HO3&#45;&#45;MT -->
<g id="edge10" class="edge">
<title>HO3&#45;&#45;MT</title>
<path fill="none" stroke="black" d="M217.25,-431.7C217.25,-420.85 217.25,-406.92 217.25,-396.1"/>
</g>
<!-- LZ -->
<g id="node11" class="node">
<title>LZ</title>
<ellipse fill="none" stroke="black" cx="181.25" cy="-306" rx="27" ry="18"/>
<text text-anchor="middle" x="181.25" y="-302.3" font-family="Helvetica,Arial,sans-serif" font-size="14.00">LZ</text>
</g>
<!-- MT&#45;&#45;LZ -->
<g id="edge11" class="edge">
<title>MT&#45;&#45;LZ</title>
<path fill="none" stroke="black" d="M208.9,-360.76C203.08,-349.46 195.36,-334.44 189.55,-323.15"/>
</g>
<!-- FJ -->
<g id="node13" class="node">
<title>FJ</title>
<ellipse fill="none" stroke="black" cx="253.25" cy="-306" rx="27" ry="18"/>
<text text-anchor="middle" x="253.25" y="-302.3" font-family="Helvetica,Arial,sans-serif" font-size="14.00">FJ</text>
</g>
<!-- MT&#45;&#45;FJ -->
<g id="edge13" class="edge">
<title>MT&#45;&#45;FJ</title>
<path fill="none" stroke="black" d="M225.6,-360.76C231.41,-349.46 239.14,-334.44 244.94,-323.15"/>
</g>
<!-- ER -->
<g id="node14" class="node">
<title>ER</title>
<ellipse fill="none" stroke="black" cx="37.25" cy="-306" rx="27" ry="18"/>
<text text-anchor="middle" x="37.25" y="-302.3" font-family="Helvetica,Arial,sans-serif" font-size="14.00">ER</text>
</g>
<!-- MT&#45;&#45;ER -->
<g id="edge14" class="edge">
<title>MT&#45;&#45;ER</title>
<path fill="none" stroke="black" d="M196.11,-366.51C191.28,-364.25 186.12,-361.96 181.25,-360 134.29,-341.16 120.21,-342.84 73.25,-324 68.37,-322.04 63.22,-319.75 58.38,-317.49"/>
</g>
<!-- DR -->
<g id="node16" class="node">
<title>DR</title>
<ellipse fill="none" stroke="black" cx="109.25" cy="-306" rx="27" ry="18"/>
<text text-anchor="middle" x="109.25" y="-302.3" font-family="Helvetica,Arial,sans-serif" font-size="14.00">DR</text>
</g>
<!-- MT&#45;&#45;DR -->
<g id="edge16" class="edge">
<title>MT&#45;&#45;DR</title>
<path fill="none" stroke="black" d="M198.44,-364.81C178.61,-351.96 147.58,-331.85 127.84,-319.05"/>
</g>
<!-- FL -->
<g id="node12" class="node">
<title>FL</title>
<ellipse fill="none" stroke="black" cx="181.25" cy="-234" rx="27" ry="18"/>
<text text-anchor="middle" x="181.25" y="-230.3" font-family="Helvetica,Arial,sans-serif" font-size="14.00">FL</text>
</g>
<!-- LZ&#45;&#45;FL -->
<g id="edge12" class="edge">
<title>LZ&#45;&#45;FL</title>
<path fill="none" stroke="black" d="M181.25,-287.7C181.25,-276.85 181.25,-262.92 181.25,-252.1"/>
</g>
<!-- CB&#45;&#45;IH1 -->
<g id="edge18" class="edge">
<title>CB&#45;&#45;IH1</title>
<path fill="none" stroke="black" d="M307.25,-435.17C321.45,-422.9 342.09,-405.06 356.28,-392.8"/>
</g>
<!-- IHP&#45;&#45;IHP -->
<g id="edge26" class="edge">
<title>IHP&#45;&#45;IHP</title>
<path fill="none" stroke="black" d="M493.14,-318.43C505.94,-321.68 518.25,-317.53 518.25,-306 518.25,-294.47 505.94,-290.32 493.14,-293.57"/>
</g>
<!-- IHP&#45;&#45;IW -->
<g id="edge27" class="edge">
<title>IHP&#45;&#45;IW</title>
<path fill="none" stroke="black" d="M457.87,-290.83C444.68,-278.69 425.78,-261.28 412.6,-249.14"/>
</g>
<!-- IHP&#45;&#45;IH2 -->
<g id="edge28" class="edge">
<title>IHP&#45;&#45;IH2</title>
<path fill="none" stroke="black" d="M478.59,-288.15C487.25,-260.82 504.26,-207.14 512.92,-179.82"/>
</g>
<!-- IHP&#45;&#45;IH4 -->
<g id="edge29" class="edge">
<title>IHP&#45;&#45;IH4</title>
<path fill="none" stroke="black" d="M470.76,-287.85C464.94,-247.68 450.49,-147.89 444.7,-107.94"/>
</g>
<!-- IW&#45;&#45;IW -->
<g id="edge30" class="edge">
<title>IW&#45;&#45;IW</title>
<path fill="none" stroke="black" d="M417.14,-246.43C429.94,-249.68 442.25,-245.53 442.25,-234 442.25,-222.47 429.94,-218.32 417.14,-221.57"/>
</g>
<!-- IW&#45;&#45;IH2 -->
<g id="edge31" class="edge">
<title>IW&#45;&#45;IH2</title>
<path fill="none" stroke="black" d="M416.96,-221.6C439.46,-208.58 476.05,-187.41 498.55,-174.4"/>
</g>
<!-- IW&#45;&#45;IH4 -->
<g id="edge32" class="edge">
<title>IW&#45;&#45;IH4</title>
<path fill="none" stroke="black" d="M402.59,-216.15C411.25,-188.82 428.26,-135.14 436.92,-107.82"/>
</g>
<!-- IH2&#45;&#45;HV -->
<g id="edge36" class="edge">
<title>IH2&#45;&#45;HV</title>
<path fill="none" stroke="black" d="M522.4,-144.15C529.14,-116.82 542.37,-63.14 549.1,-35.82"/>
</g>
<!-- IH2&#45;&#45;IH2 -->
<g id="edge33" class="edge">
<title>IH2&#45;&#45;IH2</title>
<path fill="none" stroke="black" d="M538.14,-174.43C550.94,-177.68 563.25,-173.53 563.25,-162 563.25,-150.47 550.94,-146.32 538.14,-149.57"/>
</g>
<!-- IH2&#45;&#45;IH4 -->
<g id="edge34" class="edge">
<title>IH2&#45;&#45;IH4</title>
<path fill="none" stroke="black" d="M502.87,-146.83C489.68,-134.69 470.78,-117.28 457.6,-105.14"/>
</g>
<!-- MLM -->
<g id="node24" class="node">
<title>MLM</title>
<ellipse fill="none" stroke="black" cx="460.25" cy="-18" rx="31.4" ry="18"/>
<text text-anchor="middle" x="460.25" y="-14.3" font-family="Helvetica,Arial,sans-serif" font-size="14.00">MLM</text>
</g>
<!-- IH2&#45;&#45;MLM -->
<g id="edge37" class="edge">
<title>IH2&#45;&#45;MLM</title>
<path fill="none" stroke="black" d="M515.88,-144.02C512.92,-125.66 506.88,-95.84 496.25,-72 490.27,-58.59 480.88,-44.92 473.19,-34.82"/>
</g>
<!-- IH4&#45;&#45;HV -->
<g id="edge38" class="edge">
<title>IH4&#45;&#45;HV</title>
<path fill="none" stroke="black" d="M461.33,-76.97C481.66,-64.15 513.67,-43.96 534.04,-31.11"/>
</g>
<!-- IH4&#45;&#45;IH4 -->
<g id="edge35" class="edge">
<title>IH4&#45;&#45;IH4</title>
<path fill="none" stroke="black" d="M462.14,-102.43C474.94,-105.68 487.25,-101.53 487.25,-90 487.25,-78.47 474.94,-74.32 462.14,-77.57"/>
</g>
<!-- IH4&#45;&#45;MLM -->
<g id="edge39" class="edge">
<title>IH4&#45;&#45;MLM</title>
<path fill="none" stroke="black" d="M446.6,-72.05C449.39,-61.21 453,-47.18 455.81,-36.28"/>
</g>
</g>
</svg>
