<?xml version="1.0" encoding="UTF-8" standalone="no"?>
<!DOCTYPE svg PUBLIC "-//W3C//DTD SVG 1.1//EN"
 "http://www.w3.org/Graphics/SVG/1.1/DTD/svg11.dtd">
<!-- Generated by graphviz version 2.43.0 (0)
 -->
<!-- Title: G Pages: 1 -->
<svg width="410pt" height="116pt"
 viewBox="0.00 0.00 410.00 116.00" xmlns="http://www.w3.org/2000/svg" xmlns:xlink="http://www.w3.org/1999/xlink">
<g id="graph0" class="graph" transform="scale(1 1) rotate(0) translate(4 112)">
<title>G</title>
<polygon fill="white" stroke="transparent" points="-4,4 -4,-112 406,-112 406,4 -4,4"/>
<!-- b -->
<g id="node1" class="node">
<title>b</title>
<ellipse fill="yellow" stroke="black" cx="202" cy="-90" rx="18" ry="18"/>
<text text-anchor="middle" x="202" y="-81.9" font-family="Times,serif" font-size="32.00" fill="blue">a very long label</text>
</g>
<!-- d -->
<g id="node2" class="node">
<title>d</title>
<ellipse fill="lightgrey" stroke="black" cx="165" cy="-18" rx="18" ry="18"/>
<text text-anchor="middle" x="165" y="-9.9" font-family="Times,serif" font-size="32.00" fill="blue">an even longer label</text>
</g>
<!-- b&#45;&gt;d -->
<g id="edge3" class="edge">
<title>b&#45;&gt;d</title>
<path fill="none" stroke="black" d="M193.97,-73.81C189.22,-64.82 183.09,-53.23 177.7,-43.03"/>
<polygon fill="black" stroke="black" points="180.78,-41.36 173.01,-34.16 174.59,-44.64 180.78,-41.36"/>
</g>
<!-- c -->
<g id="node4" class="node">
<title>c</title>
<ellipse fill="none" stroke="black" cx="375" cy="-18" rx="27" ry="18"/>
<text text-anchor="middle" x="375" y="-14.3" font-family="Times,serif" font-size="14.00">c</text>
</g>
<!-- b&#45;&gt;c -->
<g id="edge4" class="edge">
<title>b&#45;&gt;c</title>
<path fill="none" stroke="black" d="M218.6,-83.02C244.53,-73.57 296.11,-54.4 339,-36 340.81,-35.22 342.66,-34.41 344.53,-33.58"/>
<polygon fill="black" stroke="black" points="346.17,-36.68 353.79,-29.32 343.25,-30.31 346.17,-36.68"/>
</g>
<!-- a -->
<g id="node3" class="node">
<title>a</title>
<ellipse fill="none" stroke="black" cx="338" cy="-90" rx="27" ry="18"/>
<text text-anchor="middle" x="338" y="-86.3" font-family="Times,serif" font-size="14.00">a</text>
</g>
<!-- a&#45;&gt;d -->
<g id="edge1" class="edge">
<title>a&#45;&gt;d</title>
<path fill="none" stroke="black" d="M315.38,-79.85C283.34,-66.88 224.89,-43.23 191.07,-29.55"/>
<polygon fill="black" stroke="black" points="192,-26.15 181.42,-25.64 189.37,-32.64 192,-26.15"/>
</g>
<!-- a&#45;&gt;c -->
<g id="edge2" class="edge">
<title>a&#45;&gt;c</title>
<path fill="none" stroke="black" d="M346.58,-72.76C351.06,-64.28 356.65,-53.71 361.68,-44.2"/>
<polygon fill="black" stroke="black" points="364.89,-45.62 366.46,-35.15 358.7,-42.35 364.89,-45.62"/>
</g>
</g>
</svg>
